<svg width="200" height="202" viewBox="0 0 200 202" fill="none" xmlns="http://www.w3.org/2000/svg">
<circle cx="50" cy="50" r="50" transform="scale(2)" fill="white"/>
<circle cx="15" cy="15" r="15" transform="translate(70 6.64844) scale(2)" fill="#542938"/>
<path d="M34.2077 34.6141L6.9822 50.202C5.47774 51.0634 3.55845 50.474 2.79671 48.9167L1.33557 45.9296C0.600799 44.4275 1.23602 42.6145 2.74766 41.8995L32.4029 27.872C36.6336 25.4132 38.9036 23.9047 42.7802 20.9951C44.7527 19.4994 45.3465 18.3558 45.634 15.8564C45.5645 11.7334 44.7225 9.93091 41.9154 7.54369C38.5068 5.05698 36.403 4.73731 32.3165 6.0323C28.6125 7.80727 27.3346 8.68216 28.425 9.73521C30.7245 11.1066 31.6884 12.0034 31.7111 14.2694C31.0544 16.9033 30.2517 18.1905 27.0413 19.7104L25.1388 30.1391L23.1498 19.6349C20.2208 17.6125 19.2613 16.3664 19.0854 13.8916C19.3518 10.1646 20.2246 8.15632 23.3228 4.74761C26.833 1.57511 29.3789 0.586948 34.8243 0.0622809C39.2483 -0.222382 41.6184 0.415561 45.634 3.08507C49.8107 5.96349 51.3964 7.8089 51.7738 11.8512L51.7765 11.9144C51.973 16.4726 52.0715 18.7592 49.1454 23.5269C43.8959 29.5626 40.8911 30.0965 34.2077 34.6141Z" transform="translate(24.4314 131.047) scale(2.06071 1.93739) rotate(-45)" fill="#542938"/>
</svg>
