<svg width="200" height="200" viewBox="0 0 200 200" fill="none" xmlns="http://www.w3.org/2000/svg">
<circle cx="50" cy="50" r="50" transform="scale(2)" fill="white"/>
<circle cx="10" cy="10" r="10" transform="translate(80 6.64844) scale(2)" fill="#542938"/>
<path d="M18.8532 43.6556C15.9851 45.0161 11.1073 49.2621 8.17223 51.9433C6.85005 53.1512 4.76436 52.9918 3.67248 51.5724L2.15801 49.6035C1.02813 48.1346 1.48702 46.0028 3.1212 45.1289L47.3083 21.4993C50.3065 19.6026 51.9153 18.4391 54.6626 16.1947C56.0604 15.041 56.4813 14.1589 56.685 12.2309C56.6358 9.05061 56.0391 7.66029 54.0497 5.81889C51.634 3.90074 50.1431 3.65416 47.247 4.65306C44.622 6.0222 43.7164 6.69705 44.4892 7.50933C46.1188 8.56719 46.8019 9.25888 46.818 11.0068C46.3526 13.0385 45.7837 14.0313 43.5086 15.2038L42.1603 23.248L40.7507 15.1455C38.6749 13.5855 37.9949 12.6244 37.8703 10.7154C38.0591 7.84052 38.6776 6.29144 40.8733 3.66211C43.361 1.21497 45.1652 0.452747 49.0243 0.0480408C52.1595 -0.171536 53.8392 0.320546 56.685 2.37969C59.645 4.59999 60.7688 6.02346 61.0362 9.14149L61.0382 9.19024C61.1774 12.7063 61.2472 14.47 59.1735 18.1477C55.4532 22.8034 53.3238 23.2152 48.5873 26.6998L18.8532 43.6556Z" transform="translate(10.9714 125.701) scale(2.06071 1.93739) rotate(-45)" fill="#542938"/>
</svg>
