<svg width="210" height="202" viewBox="0 0 210 202" fill="none" xmlns="http://www.w3.org/2000/svg">
<path d="M0 0H45C50.5228 0 55 4.47715 55 10V90C55 95.5229 50.5228 100 45 100H0V0Z" transform="translate(99 1) scale(2)" fill="#859E6B"/>
<path d="M0 0H45C50.5228 0 55 4.47715 55 10V90C55 95.5229 50.5228 100 45 100H0V0Z" transform="translate(99 1) scale(2)" fill="url(#paint0_linear)"/>
<rect width="35" height="100" transform="translate(29 1) scale(2)" fill="#542938"/>
<circle cx="10" cy="10" r="10" transform="translate(37 19) scale(2)" fill="#E1DBDD"/>
<rect width="27" height="11" rx="3" transform="translate(7 29) scale(2)" fill="#453E40" fill-opacity="0.3"/>
<rect width="25" height="10" rx="3" transform="translate(9 29) scale(2)" fill="#453E40"/>
<circle cx="10" cy="10" r="10" transform="translate(37 81) scale(2)" fill="#E1DBDD"/>
<rect width="27" height="11" rx="3" transform="translate(7 91) scale(2)" fill="#453E40" fill-opacity="0.3"/>
<g filter="url(#filter0_d)">
<rect width="25" height="10" rx="3" transform="translate(9 91) scale(2)" fill="#453E40"/>
</g>
<circle cx="10" cy="10" r="10" transform="translate(37 141) scale(2)" fill="#E1DBDD"/>
<rect width="27" height="11" rx="3" transform="translate(7 151) scale(2)" fill="#453E40" fill-opacity="0.3"/>
<g filter="url(#filter1_d)">
<rect width="25" height="10" rx="3" transform="translate(9 151) scale(2)" fill="#453E40"/>
</g>
<defs>
<filter id="filter0_d" x="1" y="91" width="66" height="36" filterUnits="userSpaceOnUse" color-interpolation-filters="sRGB">
<feFlood flood-opacity="0" result="BackgroundImageFix"/>
<feColorMatrix in="SourceAlpha" type="matrix" values="0 0 0 0 0 0 0 0 0 0 0 0 0 0 0 0 0 0 255 0"/>
<feOffset dy="4"/>
<feGaussianBlur stdDeviation="2"/>
<feColorMatrix type="matrix" values="0 0 0 0 0 0 0 0 0 0 0 0 0 0 0 0 0 0 0.25 0"/>
<feBlend mode="normal" in2="BackgroundImageFix" result="effect1_dropShadow"/>
<feBlend mode="normal" in="SourceGraphic" in2="effect1_dropShadow" result="shape"/>
</filter>
<filter id="filter1_d" x="1" y="151" width="66" height="36" filterUnits="userSpaceOnUse" color-interpolation-filters="sRGB">
<feFlood flood-opacity="0" result="BackgroundImageFix"/>
<feColorMatrix in="SourceAlpha" type="matrix" values="0 0 0 0 0 0 0 0 0 0 0 0 0 0 0 0 0 0 255 0"/>
<feOffset dy="4"/>
<feGaussianBlur stdDeviation="2"/>
<feColorMatrix type="matrix" values="0 0 0 0 0 0 0 0 0 0 0 0 0 0 0 0 0 0 0.25 0"/>
<feBlend mode="normal" in2="BackgroundImageFix" result="effect1_dropShadow"/>
<feBlend mode="normal" in="SourceGraphic" in2="effect1_dropShadow" result="shape"/>
</filter>
<linearGradient id="paint0_linear" x2="1" gradientUnits="userSpaceOnUse" gradientTransform="translate(54.5 65.625) scale(55 30.25) rotate(180)">
<stop stop-color="#453E40"/>
<stop offset="1" stop-color="white" stop-opacity="0"/>
</linearGradient>
</defs>
</svg>
