<svg width="202" height="202" viewBox="0 0 202 202" fill="none" xmlns="http://www.w3.org/2000/svg">
<path d="M0.5 0.5H45C50.2467 0.5 54.5 4.7533 54.5 10V90C54.5 95.2467 50.2467 99.5 45 99.5H0.5V0.5Z" transform="translate(91 1) scale(2)" fill="white" stroke="#542938"/>
<rect x="0.5" y="0.5" width="34" height="99" transform="translate(21 1) scale(2)" fill="white" stroke="#542938"/>
<circle cx="10" cy="10" r="10" transform="translate(29 19) scale(2)" fill="#542938"/>
<rect x="0.5" y="0.5" width="24" height="9" rx="2.5" transform="translate(1 29) scale(2)" fill="white" stroke="#542938"/>
<circle cx="10" cy="10" r="10" transform="translate(29 81) scale(2)" fill="#542938"/>
<rect x="0.5" y="0.5" width="24" height="9" rx="2.5" transform="translate(1 91) scale(2)" fill="white" stroke="#542938"/>
<circle cx="10" cy="10" r="10" transform="translate(29 141) scale(2)" fill="#542938"/>
<rect x="0.5" y="0.5" width="24" height="9" rx="2.5" transform="translate(1 151) scale(2)" fill="white" stroke="#542938"/>
</svg>
