<svg width="200" height="200" viewBox="0 0 200 200" fill="none" xmlns="http://www.w3.org/2000/svg">
<circle cx="50" cy="50" r="50" transform="scale(2)" fill="#453E40"/>
<circle cx="50" cy="50" r="50" transform="scale(2)" fill="url(#paint0_radial)"/>
<path d="M19.906 59.9586L5.33239 66.7046C3.10998 67.7334 2.98991 70.8477 5.12651 72.0445L17.5266 78.9902C18.6122 79.5983 19.9604 79.4731 20.9155 78.6756L34.559 67.283C35.3865 66.5921 35.7776 65.5054 35.5922 64.4435C31.7213 42.2778 31.7769 29.2292 35.7561 6.80606C35.8467 6.29559 35.7815 5.76246 35.5652 5.29129C34.6406 3.27731 31.7598 3.33317 30.914 5.38147L17.847 37.0266C17.6136 37.5918 17.5585 38.2149 17.6891 38.8123L21.5766 56.5955C21.877 57.9695 21.1824 59.3678 19.906 59.9586Z" transform="translate(169.795 14) scale(-2 2)" fill="#453E40"/>
<path d="M19.3537 58.485L5.33239 64.9753C3.10998 66.004 2.98991 69.1184 5.12651 70.3151L17.0433 76.9902C18.1289 77.5983 19.4772 77.4731 20.4323 76.6756L33.6616 65.6289C34.4891 64.9379 34.8803 63.8518 34.695 62.7898C30.9284 41.2041 30.985 28.4841 34.8622 6.63591C34.9506 6.1382 34.8869 5.61839 34.6761 5.159C33.7746 3.19538 30.9658 3.24985 30.1411 5.24694L17.4098 36.0792C17.1764 36.6445 17.1213 37.2675 17.2519 37.8649L21.0243 55.1218C21.3247 56.4959 20.6301 57.8941 19.3537 58.485Z" transform="translate(172 14) scale(-2 2)" fill="#859E6B"/>
<path d="M19.906 59.9586L5.33239 66.7046C3.10998 67.7334 2.98991 70.8477 5.12651 72.0445L17.5266 78.9902C18.6122 79.5983 19.9604 79.4731 20.9155 78.6756L34.559 67.283C35.3865 66.5921 35.7776 65.5054 35.5922 64.4435C31.7213 42.2778 31.7769 29.2292 35.7561 6.80606C35.8467 6.29559 35.7815 5.76246 35.5652 5.29129C34.6406 3.27731 31.7598 3.33317 30.914 5.38147L17.847 37.0266C17.6136 37.5918 17.5585 38.2149 17.6891 38.8123L21.5766 56.5955C21.877 57.9695 21.1824 59.3678 19.906 59.9586Z" transform="translate(30 14) scale(2)" fill="#453E40"/>
<path d="M19.3537 58.485L5.33239 64.9753C3.10998 66.004 2.98991 69.1184 5.12651 70.3151L17.0433 76.9902C18.1289 77.5983 19.4772 77.4731 20.4323 76.6756L33.6616 65.6289C34.4891 64.9379 34.8803 63.8518 34.695 62.7898C30.9284 41.2041 30.985 28.4841 34.8622 6.63591C34.9506 6.1382 34.8869 5.61839 34.6761 5.159C33.7746 3.19538 30.9658 3.24985 30.1411 5.24694L17.4098 36.0792C17.1764 36.6445 17.1213 37.2675 17.2519 37.8649L21.0243 55.1218C21.3247 56.4959 20.6301 57.8941 19.3537 58.485Z" transform="translate(28 14) scale(2)" fill="#859E6B"/>
<defs>
<radialGradient id="paint0_radial" cx="0.5" cy="0.5" r="0.5" gradientUnits="userSpaceOnUse" gradientTransform="translate(87.203 -8) scale(74.406 88) rotate(90)">
<stop stop-color="#E1DBDD" stop-opacity="0.5"/>
<stop offset="1" stop-color="#542938" stop-opacity="0.5"/>
</radialGradient>
</defs>
</svg>
