<svg width="200" height="200" viewBox="0 0 200 200" fill="none" xmlns="http://www.w3.org/2000/svg">
<circle cx="50" cy="50" r="50" transform="scale(2)" fill="#453E40"/>
<circle cx="50" cy="50" r="50" transform="scale(2)" fill="url(#paint0_radial)"/>
<path d="M14.302 58.5004L2.33404 66.2995C1.18768 67.0465 1.11315 68.6983 2.18756 69.5456L11.9484 77.2427C12.793 77.9087 14.0132 77.7874 14.7102 76.9681L24.5234 65.4321C24.8311 65.0704 25 64.611 25 64.1362V6.18835C25 5.99562 24.9696 5.80409 24.9098 5.62085C24.352 3.91019 21.9194 3.94657 21.413 5.67315L12.3052 36.7253C12.2224 37.0075 12.2029 37.3045 12.248 37.5951L15.1863 56.5179C15.307 57.2952 14.9609 58.071 14.302 58.5004Z" transform="translate(152 14) scale(-2 2)" fill="#859E6B" stroke="white"/>
<path d="M14.302 58.5004L2.33404 66.2995C1.18768 67.0465 1.11315 68.6983 2.18756 69.5456L11.9484 77.2427C12.793 77.9087 14.0132 77.7874 14.7102 76.9681L24.5234 65.4321C24.8311 65.0704 25 64.611 25 64.1362V6.18835C25 5.99562 24.9696 5.80409 24.9098 5.62085C24.352 3.91019 21.9194 3.94657 21.413 5.67315L12.3052 36.7253C12.2224 37.0075 12.2029 37.3045 12.248 37.5951L15.1863 56.5179C15.307 57.2952 14.9609 58.071 14.302 58.5004Z" transform="translate(46 14) scale(2)" fill="#859E6B" stroke="white"/>
<defs>
<radialGradient id="paint0_radial" cx="0.5" cy="0.5" r="0.5" gradientUnits="userSpaceOnUse" gradientTransform="translate(87.203 -8) scale(74.406 88) rotate(90)">
<stop stop-color="#E1DBDD" stop-opacity="0.5"/>
<stop offset="1" stop-color="#542938" stop-opacity="0.5"/>
</radialGradient>
</defs>
</svg>
