<svg width="200" height="200" viewBox="0 0 200 200" fill="none" xmlns="http://www.w3.org/2000/svg">
<circle cx="50" cy="50" r="50" transform="scale(2)" fill="white"/>
<path d="M19.3537 58.485L5.33239 64.9753C3.10998 66.004 2.98991 69.1184 5.12651 70.3151L17.0433 76.9902C18.1289 77.5983 19.4772 77.4731 20.4323 76.6756L33.6616 65.6289C34.4891 64.9379 34.8803 63.8518 34.695 62.7898C30.9284 41.2041 30.985 28.4841 34.8622 6.63591C34.9506 6.1382 34.8869 5.61839 34.6761 5.159C33.7746 3.19538 30.9658 3.24985 30.1411 5.24694L17.4098 36.0792C17.1764 36.6445 17.1213 37.2675 17.2519 37.8649L21.0243 55.1218C21.3247 56.4959 20.6301 57.8941 19.3537 58.485Z" transform="translate(26 14) scale(2)" fill="#542938"/>
<path d="M19.3537 58.485L5.33239 64.9753C3.10998 66.004 2.98991 69.1184 5.12651 70.3151L17.0433 76.9902C18.1289 77.5983 19.4772 77.4731 20.4323 76.6756L33.6616 65.6289C34.4891 64.9379 34.8803 63.8518 34.695 62.7898C30.9284 41.2041 30.985 28.4841 34.8622 6.63591C34.9506 6.1382 34.8869 5.61839 34.6761 5.159C33.7746 3.19538 30.9658 3.24985 30.1411 5.24694L17.4098 36.0792C17.1764 36.6445 17.1213 37.2675 17.2519 37.8649L21.0243 55.1218C21.3247 56.4959 20.6301 57.8941 19.3537 58.485Z" transform="translate(174 14) scale(-2 2)" fill="#542938"/>
</svg>
