<svg width="840" height="889" viewBox="0 0 840 889" fill="none" xmlns="http://www.w3.org/2000/svg">
<circle cx="22.5" cy="22.5" r="22.5" transform="translate(716 113.412)" fill="black"/>
<circle cx="22.5" cy="22.5" r="22.5" transform="translate(675 148.412)" fill="black"/>
<path d="M427 119.281C427 237.193 331.413 332.781 213.5 332.781C95.5872 332.781 0 237.193 0 119.281C0 1.36789 93.9467 0 211.86 0C329.772 0 427 1.36789 427 119.281Z" transform="translate(0 600.452) rotate(-30)" fill="#542938"/>
<circle cx="154.5" cy="154.5" r="154.5" transform="translate(530.343 195.412)" fill="#542938"/>
<circle cx="22.5" cy="22.5" r="22.5" transform="translate(587 199.412)" fill="black"/>
<circle cx="22.5" cy="22.5" r="22.5" transform="translate(534 227.412)" fill="black"/>
<path d="M53.7 520.268C76.4054 502.42 90.0527 493.685 115.961 480.279L635.811 186.693C660.575 170.223 673.862 160.119 696.553 140.63C708.099 130.611 711.575 122.951 713.257 106.209C712.851 78.5926 707.922 66.5195 691.491 50.5293C671.539 33.8728 659.225 31.7316 635.305 40.4057C613.624 52.2949 606.144 58.155 612.527 65.2086C625.986 74.3948 631.629 80.4011 631.762 95.5796C627.918 113.222 623.219 121.844 604.428 132.025L596.199 183.64C595.663 187.001 590.832 187.015 590.277 183.658L581.649 131.519C564.504 117.972 558.888 109.626 557.859 93.0487C559.418 68.0846 564.527 54.6328 582.662 31.8005C603.208 10.5504 618.11 3.93151 649.984 0.417171C675.879 -1.48956 689.752 2.78352 713.257 20.6645C737.705 39.9448 746.987 52.3058 749.196 79.3818C750.356 110.196 748.306 127.132 740.591 156.828C723.724 201.388 707.833 222.237 668.713 252.497L344.755 439.278C309.21 457.005 297.121 470.619 287.557 500.526C279.723 525.836 273.101 539.293 258.198 562.281C241.551 581.939 230.394 592.26 207.074 609.356C175.805 628.254 156.903 636.707 120.01 646.813C95.3004 651.074 81.4467 651.051 56.7371 646.813C35.858 641.155 25.6596 635.148 11.1806 617.455C-2.21093 599.12 -2.93253 588.811 5.61254 570.38C19.6083 550.372 29.818 539.371 53.7 520.268Z" transform="translate(51.4561)" fill="#E1DBDD" fill-opacity="0.8"/>
<path d="M53.044 513.912C75.472 496.282 88.9527 487.655 114.544 474.412L628.044 184.412C652.505 168.144 665.63 158.163 688.044 138.912C699.449 129.016 702.882 121.449 704.544 104.912C704.143 77.6325 699.274 65.7069 683.044 49.9121C663.336 33.459 651.172 31.3439 627.544 39.9121C606.128 51.656 598.739 57.4446 605.044 64.4121C618.339 73.486 623.913 79.419 624.044 94.4121C620.247 111.839 615.606 120.355 597.044 130.412L588.951 181.174C588.416 184.535 583.585 184.549 583.029 181.192L574.544 129.912C557.609 116.531 552.061 108.287 551.044 91.9121C552.584 67.2529 557.631 53.9655 575.544 31.4121C595.84 10.4216 610.559 3.88348 642.044 0.412075C667.623 -1.47137 681.326 2.74951 704.544 20.4121C728.694 39.4568 737.862 51.6668 740.044 78.4121C741.19 108.85 739.165 125.579 731.544 154.912C714.884 198.928 699.187 219.522 660.544 249.412L340.544 433.912C305.433 451.422 293.491 464.87 284.044 494.412C276.306 519.412 269.765 532.706 255.044 555.412C238.6 574.83 227.58 585.025 204.544 601.912C173.658 620.58 154.987 628.929 118.544 638.912C94.1362 643.12 80.4518 643.098 56.044 638.912C35.42 633.323 25.3461 627.389 11.044 609.912C-2.18392 591.802 -2.89671 581.618 5.54397 563.412C19.3688 543.649 29.4538 532.782 53.044 513.912Z" transform="translate(55.4561)" fill="#542938"/>
<rect width="50" height="80.9" rx="10" transform="translate(101.239 526.887) rotate(-32)" fill="#E1DBDD"/>
<rect width="30.9" height="49.9962" rx="10" transform="translate(282.529 424.774) rotate(-32)" fill="#E1DBDD"/>
<rect width="30.9" height="49.9962" rx="10" transform="translate(672.53 193.773) rotate(-32)" fill="#E1DBDD"/>
<path d="M0 28.1093L93.4895 3.98536L750.969 15.0916L769.291 0" transform="translate(46.1045 577.574) rotate(-32)" stroke="white" stroke-width="2"/>
<path d="M0 39.0319L93.1719 18.2468L749.539 29.2473L819.746 0" transform="translate(43.8164 571.812) rotate(-32)" stroke="white" stroke-width="2"/>
<path d="M0 16.8626L91.9004 0L748.267 11.0001L847.362 15.723" transform="translate(58.564 593.612) rotate(-32)" stroke="white" stroke-width="2"/>
<path d="M0 11.7215L91.6355 0L746.995 9.78115L794.151 22.1408" transform="translate(64.2886 600.972) rotate(-32)" stroke="white" stroke-width="2"/>
<circle cx="22.5" cy="22.5" r="22.5" transform="translate(767 136.412)" fill="black"/>
<circle cx="22.5" cy="22.5" r="22.5" transform="translate(730 176.412)" fill="black"/>
</svg>
