<svg width="842" height="889" viewBox="0 0 842 889" fill="none" xmlns="http://www.w3.org/2000/svg">
<path d="M429.433 489.84C488.39 591.955 453.402 722.53 351.287 781.486C249.171 840.442 118.597 805.455 59.6403 703.34C0.683939 601.224 81.3603 553.066 183.476 494.11C285.591 435.153 370.477 387.724 429.433 489.84Z" fill="#542938"/>
<circle cx="686.843" cy="358.5" r="154.5" fill="#542938"/>
<path d="M370.75 424.567L776.001 191M350.5 487L357 458C359.133 451.079 360.19 446.82 362 439C363.388 432.836 364.913 429.624 371 425M777 190C784.991 183.957 788.913 179.697 794.5 170.5C800.873 162.714 803.468 157.566 807 147.5" stroke="black"/>
<circle cx="745.5" cy="142.5" r="22.5" fill="black"/>
<circle cx="782.5" cy="100.5" r="22.5" fill="black"/>
<circle cx="704.5" cy="177.5" r="22.5" fill="black"/>
<circle cx="620.5" cy="224.5" r="22.5" fill="black"/>
<circle cx="567.5" cy="252.5" r="22.5" fill="black"/>
<path d="M118.5 482C95.6374 499.91 84.4439 511.835 66.9999 536C53.9024 555.081 48.9968 567.779 50.4999 593.5C55.504 621.354 65.1892 632.723 90.9999 644C110.049 650.861 129.517 651.434 156.5 649C187.132 644.089 202.486 638.388 228.5 626C255.562 612.586 269.684 603.072 293.5 583.5C319.463 557.371 333.16 538.11 339.5 522C344.617 509.07 348.578 496.35 358 475C365.668 462.044 377.33 455.465 401 444L478.5 399L717 261.5C747.061 244.031 760.601 232.695 780.5 210.5C800.084 183.602 805.634 168.364 809 141C814.05 107.918 813.035 89.136 800.5 54.9999C789.672 33.9222 779.846 24.9714 756.5 13.4999C731.99 4.4302 718.205 2.48351 693.5 8.49994C668.737 16.2598 656.444 23.8173 638 44.4999C624.905 63.3979 621.04 75.1375 621.5 98.4999C621.731 105.752 622.637 109.662 625 116.5C629.864 125.015 635.5 127.5 639.5 131L644.392 133.854C645.099 134.266 645.608 134.951 645.798 135.748L656.81 181.835C657.312 183.936 660.327 183.859 660.722 181.736L669.088 136.714C669.332 135.402 670.417 134.427 671.736 134.22C675.03 133.704 677.08 132.82 680 131C684.975 126.852 686.896 124.44 689 120C693.289 110.324 694.894 104.687 693.5 93.4999C693.148 83.7134 681.75 71.663 680 70.9999C674.979 68.756 673.133 67.31 673.5 63.9999C676.277 57.6379 679.165 54.8858 686 50.9999C701.325 41.6445 711.968 41.6248 721.5 41.9999C740.64 44.9299 749.134 48.7855 760.5 59.9999C771.369 74.0753 774.627 82.5619 776.5 98.4999C776.055 116.631 773.018 126.06 760.5 141C746.708 156.747 737.327 164.7 717 177L395 363C362.786 381.68 344.057 391.238 309 406C281.215 415.437 265.229 419.627 236 425C210.31 431.009 196.453 436.127 172.5 448C150.045 458.736 138.311 466.34 118.5 482Z" fill="#E1DBDD"/>
<path d="M118.5 477C95.6374 494.91 84.4439 506.835 66.9999 531C53.9024 550.081 48.9968 562.779 50.4999 588.5C55.504 616.354 65.1892 627.723 90.9999 639C110.049 645.861 129.517 646.434 156.5 644C187.132 639.089 202.486 633.388 228.5 621C255.562 607.586 269.684 598.072 293.5 578.5C319.463 552.371 333.16 533.11 339.5 517C344.617 504.07 348.578 491.35 358 470C365.668 457.044 377.33 450.465 401 439L478.5 394L717 256.5C747.061 239.031 760.601 227.695 780.5 205.5C800.084 178.602 805.634 163.364 809 136C814.05 102.918 813.035 84.136 800.5 49.9999C789.672 28.9222 779.846 19.9714 756.5 8.49994C731.99 -0.569799 718.205 -2.51649 693.5 3.49994C668.737 11.2598 656.444 18.8173 638 39.4999C624.905 58.3979 621.04 70.1375 621.5 93.4999C621.731 100.752 622.637 104.662 625 111.5C629.864 120.015 635.5 122.5 639.5 126L644.392 128.854C645.099 129.266 645.608 129.951 645.798 130.748L656.81 176.835C657.312 178.936 660.327 178.859 660.722 176.736L669.088 131.714C669.332 130.402 670.417 129.427 671.736 129.22C675.03 128.704 677.08 127.82 680 126C684.975 121.852 686.896 119.44 689 115C693.289 105.324 694.894 99.6872 693.5 88.4999C693.148 78.7134 681.75 66.663 680 65.9999C674.979 63.756 673.133 62.31 673.5 58.9999C676.277 52.6379 679.165 49.8858 686 45.9999C701.325 36.6445 711.968 36.6248 721.5 36.9999C740.64 39.9299 749.134 43.7855 760.5 54.9999C771.369 69.0753 774.627 77.5619 776.5 93.4999C776.055 111.631 773.018 121.06 760.5 136C746.708 151.747 737.327 159.7 717 172L395 358C362.786 376.68 344.057 386.238 309 401C281.215 410.437 265.229 414.627 236 420C210.31 426.009 196.453 431.127 172.5 443C150.045 453.736 138.311 461.34 118.5 477Z" fill="#542938"/>
<path d="M104.344 538.035C101.984 533.689 103.156 528.27 107.102 525.288L124.379 512.226C128.895 508.812 135.341 509.824 138.594 514.457L175.45 566.951C178.744 571.643 177.427 578.139 172.565 581.178L148.126 596.448C143.239 599.503 136.788 597.804 134.038 592.739L104.344 538.035Z" fill="#E1DBDD"/>
<path d="M276.11 446.257C273.046 442.021 273.761 436.14 277.752 432.762L282.482 428.759C286.579 425.292 292.682 425.677 296.31 429.632L316.726 451.882C320.578 456.079 320.15 462.641 315.786 466.303L308.354 472.539C303.907 476.271 297.227 475.444 293.824 470.741L276.11 446.257Z" fill="#E1DBDD"/>
<path d="M675.672 210.353C672.878 206.422 673.288 201.057 676.647 197.596L679.072 195.097C682.915 191.137 689.238 191.038 693.203 194.875L714.864 215.838C719.127 219.963 718.882 226.871 714.338 230.684L707.468 236.449C702.995 240.203 696.271 239.341 692.888 234.581L675.672 210.353Z" fill="#E1DBDD"/>
<path d="M56.0001 608L122.5 538L685.96 199.007L693.5 176.5" stroke="white" stroke-width="2"/>
<path d="M59.5001 611.5L127.5 544.5L689.96 206.008L734 144" stroke="white" stroke-width="2"/>
<path d="M62.5002 614.5L131.5 551.5L693.96 213.007L780.5 164.5" stroke="white" stroke-width="2"/>
<path d="M65.5005 617.5L137 559L697.96 220.007L744.5 205.5" stroke="white" stroke-width="2"/>
<path d="M367.75 432.567L773.001 199M347.5 495L354 466C356.133 459.079 357.19 454.82 359 447C360.388 440.836 361.913 437.624 368 433M774 198C781.991 191.957 785.913 187.697 791.5 178.5C797.873 170.714 800.468 165.566 804 155.5" stroke="#E1DBDD"/>
<circle cx="795.5" cy="171.5" r="22.5" fill="black"/>
<circle cx="758.5" cy="211.5" r="22.5" fill="black"/>
</svg>
