<svg width="840" height="892" viewBox="0 0 840 892" fill="none" xmlns="http://www.w3.org/2000/svg">
<circle cx="22.5" cy="22.5" r="22.5" transform="translate(716 116.412)" fill="black"/>
<circle cx="22.5" cy="22.5" r="22.5" transform="translate(675 151.412)" fill="black"/>
<path d="M427 119.281C427 237.193 331.413 332.781 213.5 332.781C95.5872 332.781 0 237.193 0 119.281C0 1.36789 93.9467 0 211.86 0C329.772 0 427 1.36789 427 119.281Z" transform="translate(0 603.452) rotate(-30)" fill="#542938"/>
<circle cx="154.5" cy="154.5" r="154.5" transform="translate(530.343 198.412)" fill="#542938"/>
<circle cx="22.5" cy="22.5" r="22.5" transform="translate(587 202.412)" fill="black"/>
<circle cx="22.5" cy="22.5" r="22.5" transform="translate(534 230.412)" fill="black"/>
<path d="M52.117 512.733L52.107 512.741C28.419 531.689 18.2313 542.658 4.31485 562.552L4.23887 562.661L4.18311 562.781C-0.0795389 571.976 -2.14362 579.373 -1.32281 586.862C-0.503473 594.337 3.16485 601.668 9.83268 610.797L9.85701 610.83L9.88314 610.862C17.0896 619.668 23.3002 625.652 30.3698 630.137C37.4366 634.619 45.2752 637.548 55.6516 640.36L55.7203 640.379L55.7905 640.391C80.365 644.605 94.2214 644.628 118.799 640.39L118.87 640.378L118.94 640.359C155.523 630.337 174.321 621.931 205.32 603.196L205.377 603.161L205.431 603.122C228.552 586.172 239.661 575.898 256.189 556.382L256.251 556.308L256.303 556.228C271.088 533.423 277.692 520.005 285.475 494.862C290.161 480.211 295.42 469.691 303.771 460.669C312.143 451.623 323.717 443.98 341.213 435.254L341.254 435.234L341.293 435.212L661.293 250.712L661.381 250.661L661.462 250.599C680.834 235.614 694.535 222.899 705.485 208.362C716.439 193.82 724.589 177.525 732.947 155.443L732.975 155.368L732.996 155.289C740.652 125.823 742.695 108.948 741.543 78.3556L741.542 78.3228L741.539 78.2901C740.435 64.7528 737.548 54.7586 731.797 45.7192C726.072 36.7204 717.576 28.7786 705.473 19.2343L705.463 19.2262L705.452 19.2183C693.786 10.3431 684.396 4.75576 674.634 1.6528C664.857 -1.4547 654.825 -2.03309 641.934 -1.08388L641.907 -1.08187L641.88 -1.07889C626.072 0.663992 614.336 3.18943 603.969 7.98081C593.588 12.7785 584.687 19.7986 574.466 30.3694L574.415 30.4219L574.37 30.4791C565.371 41.8082 559.532 50.8989 555.761 60.3148C551.987 69.7413 550.322 79.4021 549.547 91.8186L549.541 91.9118L549.547 92.005C550.066 100.363 551.753 106.781 555.554 112.833C559.258 118.73 564.907 124.174 573.159 130.728L581.549 181.437C582.382 186.472 589.629 186.451 590.433 181.41L598.409 131.376C607.421 126.424 613.259 121.735 617.304 116.045C621.438 110.228 623.599 103.5 625.51 94.7314L625.545 94.5671L625.544 94.3989C625.477 86.7023 624.006 81.1528 620.719 76.3456C617.499 71.6374 612.62 67.7747 606.041 63.2766C604.716 61.7704 604.291 60.5328 604.383 59.4194C604.482 58.2224 605.204 56.7925 606.966 55.0069C610.508 51.4181 617.465 47.1528 628.164 41.2829C639.83 37.0626 648.451 35.5646 656.5 37.0056C664.564 38.4496 672.278 42.8847 682.039 51.027C690.047 58.8262 695.151 65.5744 698.334 73.6551C701.526 81.7556 702.839 91.3221 703.043 104.848C702.218 113.007 700.967 118.807 698.595 123.754C696.224 128.697 692.677 132.905 687.066 137.775C664.712 156.975 651.638 166.917 627.259 183.133L113.831 473.092C88.1732 486.37 74.6142 495.049 52.117 512.733Z" transform="translate(55.4561 3)" fill="#542938" stroke="#E1DBDD" stroke-width="3"/>
<rect width="50" height="80.9" rx="10" transform="translate(101.239 529.887) rotate(-32)" fill="#E1DBDD"/>
<rect width="30.9" height="49.9962" rx="10" transform="translate(282.529 427.774) rotate(-32)" fill="#E1DBDD"/>
<rect width="30.9" height="49.9962" rx="10" transform="translate(672.53 196.773) rotate(-32)" fill="#E1DBDD"/>
<path d="M0 28.1093L93.4895 3.98536L750.969 15.0916L769.291 0" transform="translate(46.1045 580.574) rotate(-32)" stroke="white" stroke-width="2"/>
<path d="M0 39.0319L93.1719 18.2468L749.539 29.2473L819.746 0" transform="translate(43.8164 574.812) rotate(-32)" stroke="white" stroke-width="2"/>
<path d="M0 16.8626L91.9004 0L748.267 11.0001L847.362 15.723" transform="translate(58.564 596.612) rotate(-32)" stroke="white" stroke-width="2"/>
<path d="M0 11.7215L91.6355 0L746.995 9.78115L794.151 22.1408" transform="translate(64.2886 603.972) rotate(-32)" stroke="white" stroke-width="2"/>
<circle cx="22.5" cy="22.5" r="22.5" transform="translate(767 139.412)" fill="black"/>
<circle cx="22.5" cy="22.5" r="22.5" transform="translate(730 179.412)" fill="black"/>
</svg>
