<svg width="195" height="178" viewBox="0 0 195 178" fill="none" xmlns="http://www.w3.org/2000/svg">
<circle cx="4.55748" cy="4.55748" r="4.55748" transform="translate(170.99 68.1899) rotate(20)" fill="black"/>
<circle cx="4.55748" cy="4.55748" r="4.55748" transform="translate(160.761 72.0112) rotate(20)" fill="black"/>
<path d="M86.4909 24.1609C86.4909 48.0447 67.1293 67.4063 43.2455 67.4063C19.3617 67.4063 0 48.0447 0 24.1609C0 0.277073 19.0294 0 42.9132 0C66.797 0 86.4909 0.277073 86.4909 24.1609Z" transform="translate(0.965576 111.29) rotate(-10)" fill="white"/>
<circle cx="31.2947" cy="31.2947" r="31.2947" transform="translate(129.971 70.9355) rotate(20)" fill="white"/>
<circle cx="4.55748" cy="4.55748" r="4.55748" transform="translate(140.478 75.6221) rotate(20)" fill="black"/>
<circle cx="4.55748" cy="4.55748" r="4.55748" transform="translate(128.45 77.2798) rotate(20)" fill="black"/>
<path d="M10.7443 104.095C15.2872 100.524 18.0178 98.7768 23.2014 96.0945L127.213 37.3536C132.168 34.0583 134.827 32.0367 139.367 28.1373C141.677 26.1328 142.372 24.6002 142.709 21.2504C142.628 15.7248 141.641 13.3092 138.354 10.1099C134.362 6.77728 131.898 6.34887 127.112 8.08439C122.774 10.4632 121.278 11.6357 122.555 13.047C125.248 14.8849 126.377 16.0867 126.403 19.1236C125.634 22.6535 124.694 24.3785 120.934 26.4156L118.706 40.3919L116.377 26.3143C112.946 23.604 111.823 21.934 111.617 18.6172C111.929 13.6224 112.951 10.931 116.579 6.36267C120.69 2.11094 123.672 0.786618 130.049 0.0834678C135.23 -0.298033 138.006 0.556927 142.709 4.13456C147.6 7.99218 149.458 10.4654 149.9 15.8827C150.132 22.0481 149.722 25.4367 148.178 31.3782C144.803 40.2939 141.624 44.4652 133.796 50.5196L68.9788 87.891C61.8669 91.4378 59.4481 94.1617 57.5345 100.146C55.9671 105.209 54.6422 107.902 51.6604 112.501C48.3296 116.435 46.0974 118.5 41.4314 121.92C35.1752 125.701 31.3933 127.393 24.0117 129.415C19.0677 130.267 16.2959 130.263 11.352 129.415C7.17448 128.283 5.13399 127.081 2.23701 123.541C-0.442363 119.872 -0.586743 117.81 1.12296 114.122C3.92324 110.119 5.96601 107.918 10.7443 104.095Z" transform="translate(53.1191 1.8418) rotate(20)" fill="white" stroke="black" stroke-width="0.5"/>
<path d="M10.7443 104.095C15.2872 100.524 18.0178 98.7768 23.2014 96.0945L127.213 37.3536C132.168 34.0583 134.827 32.0367 139.367 28.1373C141.677 26.1328 142.372 24.6002 142.709 21.2504C142.628 15.7248 141.641 13.3092 138.354 10.1099C134.362 6.77728 131.898 6.34887 127.112 8.08439C122.774 10.4632 121.278 11.6357 122.555 13.047C125.248 14.8849 126.377 16.0867 126.403 19.1236C125.634 22.6535 124.694 24.3785 120.934 26.4156L118.706 40.3919L116.377 26.3143C112.946 23.604 111.823 21.934 111.617 18.6172C111.929 13.6224 112.951 10.931 116.579 6.36267C120.69 2.11094 123.672 0.786618 130.049 0.0834678C135.23 -0.298033 138.006 0.556927 142.709 4.13456C147.6 7.99218 149.458 10.4654 149.9 15.8827C150.132 22.0481 149.722 25.4367 148.178 31.3782C144.803 40.2939 141.624 44.4652 133.796 50.5196L68.9788 87.891C61.8669 91.4378 59.4481 94.1617 57.5345 100.146C55.9671 105.209 54.6422 107.902 51.6604 112.501C48.3296 116.435 46.0974 118.5 41.4314 121.92C35.1752 125.701 31.3933 127.393 24.0117 129.415C19.0677 130.267 16.2959 130.263 11.352 129.415C7.17448 128.283 5.13399 127.081 2.23701 123.541C-0.442363 119.872 -0.586743 117.81 1.12296 114.122C3.92324 110.119 5.96601 107.918 10.7443 104.095Z" transform="translate(53.1191 0.841797) rotate(20)" fill="white"/>
<rect width="10.1277" height="16.3867" rx="5.06387" transform="translate(25.3318 104.301) rotate(-12)" fill="#AAAAAA"/>
<rect width="6.25895" height="10.127" rx="3.12947" transform="translate(66.9126 97.4243) rotate(-12)" fill="#AAAAAA"/>
<rect width="6.25895" height="10.127" rx="3.12947" transform="translate(157.148 80.4741) rotate(-12)" fill="#AAAAAA"/>
<path d="M0 5.69367L18.9368 0.807254L152.113 3.05688L155.824 0" transform="translate(11.3262 110.129) rotate(-12)" stroke="black" stroke-width="0.5"/>
<path d="M0 7.90609L18.8724 3.69598L151.823 5.92418L166.043 0" transform="translate(11.2896 108.874) rotate(-12)" stroke="black" stroke-width="0.5"/>
<path d="M0 3.41559L18.6149 0L151.565 2.22813L171.637 3.18477" transform="translate(12.5864 114.045) rotate(-12)" stroke="black" stroke-width="0.5"/>
<path d="M0 2.37424L18.5612 0L151.308 1.98122L160.859 4.48474" transform="translate(13.1663 115.842) rotate(-12)" stroke="black" stroke-width="0.5"/>
<circle cx="4.55748" cy="4.55748" r="4.55748" transform="translate(179.104 76.1006) rotate(20)" fill="black"/>
<circle cx="4.55748" cy="4.55748" r="4.55748" transform="translate(169.29 81.1509) rotate(20)" fill="black"/>
</svg>
