<svg width="195" height="179" viewBox="0 0 195 179" fill="none" xmlns="http://www.w3.org/2000/svg">
<path d="M89.8978 118.296C94.866 141.67 79.9453 164.646 56.5715 169.614C33.1976 174.583 10.2217 159.662 5.25345 136.288C0.285175 112.914 18.8506 108.685 42.2245 103.716C65.5984 98.7481 84.9295 94.9225 89.8978 118.296Z" fill="white"/>
<circle cx="147.737" cy="109.103" r="31.3108" transform="rotate(18 147.737 109.103)" fill="white"/>
<path d="M82.6758 102.041L175.411 82.4018M74.8628 112.806L77.9318 107.623C78.7763 106.423 79.2467 105.668 80.0853 104.275C80.7389 103.173 81.2339 102.65 82.6967 102.14M175.666 82.2716C177.585 81.6073 178.607 81.0319 180.26 79.6091C181.976 78.5076 182.799 77.6778 184.11 75.9589" stroke="black"/>
<circle cx="172.569" cy="71.1441" r="4.55982" transform="rotate(18 172.569 71.1441)" fill="black"/>
<circle cx="182.331" cy="65.3663" r="4.55982" transform="rotate(18 182.331 65.3663)" fill="black"/>
<circle cx="162.474" cy="75.3224" r="4.55982" transform="rotate(18 162.474 75.3224)" fill="black"/>
<circle cx="143.342" cy="79.1207" r="4.55982" transform="rotate(18 143.342 79.1207)" fill="black"/>
<circle cx="131.373" cy="81.1983" r="4.55982" transform="rotate(18 131.373 81.1983)" fill="black"/>
<path d="M30.4602 97.3132C24.932 99.3335 22.0279 100.931 17.1524 104.496C13.433 107.354 11.6923 109.494 10.3712 114.545C9.59132 120.227 10.7461 123.025 15.0146 126.815C18.2564 129.33 21.9728 130.66 27.326 131.881C33.5375 132.852 36.8538 132.715 42.6436 131.957C48.6996 131.066 52.0173 130.116 57.8333 127.836C64.4737 124.426 68.3199 121.571 70.5508 118.863C72.3468 116.691 73.9069 114.488 77.0598 110.963C79.3491 108.946 82.0089 108.408 87.289 107.681L105.044 103.861L159.624 92.2952C166.512 90.8108 169.831 89.4738 175.057 86.4421C180.516 82.4842 182.54 79.8948 184.902 74.8315C187.947 68.7716 188.928 65.0879 188.65 57.7235C187.883 52.9829 186.549 50.6424 182.768 46.9693C178.612 43.6863 176.077 42.4478 170.939 42.0602C165.68 42.0051 162.837 42.6919 157.987 45.5232C154.28 48.3455 152.8 50.3662 151.425 54.8978C151.016 56.3101 150.945 57.1205 150.972 58.5863C151.377 60.5321 152.307 61.364 152.859 62.2891L152.942 62.3823C153.488 62.9936 153.76 63.8015 153.694 64.6183L152.86 75.0747L157.346 66.8215C157.984 65.649 159.37 65.147 160.665 64.8255C161.884 64.3375 162.405 63.9931 163.089 63.2689C164.521 61.6725 165.184 60.6867 165.616 58.4431C166.161 56.5349 164.718 53.4985 164.423 53.2611C163.595 52.5141 163.33 52.1198 163.608 51.5048C164.542 50.4525 165.271 50.1029 166.832 49.782C170.371 48.9386 172.424 49.6013 174.237 50.2705C177.743 52.0339 179.139 53.309 180.627 56.1822C181.84 59.5758 181.937 61.4155 181.3 64.6047C180.079 68.0715 178.903 69.6986 175.554 71.7942C171.91 73.9655 169.604 74.9109 164.916 76.0086L91.2052 91.693C83.8264 93.2761 79.618 93.9453 71.9367 94.5951C65.9905 94.6741 62.6469 94.4804 56.6768 93.6855C51.349 93.2348 48.3578 93.3535 42.9974 94.1418C37.9972 94.8049 35.2593 95.5355 30.4602 97.3132Z" fill="black"/>
<path d="M30.7737 96.3499C25.2455 98.3702 22.3413 99.9675 17.4658 103.533C13.7464 106.39 12.0058 108.53 10.6847 113.582C9.90479 119.264 11.0596 122.062 15.3281 125.852C18.5699 128.367 22.2863 129.696 27.6394 130.917C33.8509 131.889 37.1673 131.752 42.9571 130.993C49.0131 130.102 52.3308 129.153 58.1468 126.872C64.7872 123.462 68.6333 120.608 70.8642 117.9C72.6602 115.728 74.2204 113.524 77.3733 109.999C79.6626 107.982 82.3224 107.445 87.6025 106.717L105.358 102.897L159.937 91.3318C166.825 89.8474 170.145 88.5104 175.37 85.4787C180.829 81.5208 182.853 78.9314 185.216 73.8681C188.261 67.8082 189.242 64.1246 188.963 56.7601C188.196 52.0195 186.863 49.679 183.082 46.0059C178.926 42.7229 176.391 41.4844 171.252 41.0969C165.993 41.0417 163.151 41.7285 158.301 44.5598C154.593 47.3821 153.113 49.4028 151.739 53.9345C151.329 55.3467 151.259 56.1571 151.286 57.623C151.69 59.5687 152.621 60.4007 153.173 61.3258L153.256 61.4189C153.801 62.0303 154.073 62.8381 154.008 63.6549L153.174 74.1114L157.66 65.8581C158.297 64.6856 159.683 64.1836 160.979 63.8621C162.197 63.3741 162.719 63.0297 163.402 62.3056C164.835 60.7092 165.497 59.7233 165.929 57.4798C166.474 55.5715 165.032 52.5351 164.736 52.2977C163.909 51.5507 163.644 51.1564 163.922 50.5414C164.855 49.4891 165.584 49.1396 167.145 48.8186C170.685 47.9752 172.737 48.6379 174.551 49.3071C178.056 51.0705 179.452 52.3456 180.941 55.2188C182.154 58.6124 182.25 60.4521 181.613 63.6413C180.392 67.1081 179.216 68.7352 175.868 70.8308C172.223 73.0021 169.917 73.9475 165.229 75.0452L91.5187 90.7296C84.1399 92.3127 79.9315 92.9819 72.2502 93.6317C66.304 93.7107 62.9603 93.517 56.9903 92.7221C51.6625 92.2715 48.6712 92.3901 43.3109 93.1785C38.3107 93.8415 35.5728 94.5722 30.7737 96.3499Z" fill="white"/>
<path d="M24.5846 109.185C24.1935 107.074 25.4045 104.994 27.4337 104.292V104.292C29.7563 103.488 32.2824 104.771 33.0039 107.12L35.262 114.473C36.0672 117.094 34.5076 119.855 31.8464 120.519V120.519C29.1714 121.186 26.4877 119.459 25.9855 116.748L24.5846 109.185Z" fill="#AAAAAA"/>
<path d="M63.2658 100.882C62.8336 99.5422 63.506 98.0959 64.8087 97.5632V97.5632C66.1459 97.0164 67.6764 97.6226 68.2764 98.9369L70.1498 103.041C70.8487 104.571 70.1295 106.376 68.5692 107.006V107.006C66.9791 107.649 65.1779 106.807 64.6513 105.175L63.2658 100.882Z" fill="#AAAAAA"/>
<path d="M154.957 80.1551C154.609 79.0451 155.103 77.845 156.132 77.3014V77.3014C157.308 76.6794 158.766 77.128 159.39 78.3037L161.641 82.5483C162.435 84.0447 161.759 85.899 160.188 86.5335V86.5335C158.642 87.1581 156.892 86.3309 156.394 84.7399L154.957 80.1551Z" fill="#AAAAAA"/>
<path d="M10.5236 117.685L27.7246 108.357L157.555 78.3066L160.418 74.4407" stroke="black" stroke-width="0.5"/>
<path d="M10.9781 118.579L28.2803 109.923L157.887 79.9064L170.258 70.7131" stroke="black" stroke-width="0.5"/>
<path d="M11.3687 119.345L28.6132 111.523L158.22 81.5061L177.937 77.5764" stroke="black" stroke-width="0.5"/>
<path d="M11.7592 120.111L29.2037 113.313L158.553 83.1056L168.431 83.2241" stroke="black" stroke-width="0.5"/>
<path d="M81.5957 103.395L174.331 83.7563M73.7827 114.16L76.8517 108.978C77.6962 107.778 78.1666 107.023 79.0053 105.629C79.6588 104.528 80.1538 104.004 81.6167 103.494M174.586 83.6261C176.505 82.9618 177.527 82.3864 179.18 80.9636C180.896 79.8621 181.719 79.0323 183.03 77.3134" stroke="#AAAAAA"/>
<circle cx="180.39" cy="79.8649" r="4.55982" transform="rotate(18 180.39 79.8649)" fill="black"/>
<circle cx="170.754" cy="85.2574" r="4.55982" transform="rotate(18 170.754 85.2574)" fill="black"/>
</svg>
