<svg width="220" height="200" viewBox="0 0 220 200" fill="none" xmlns="http://www.w3.org/2000/svg">
<circle cx="2.57732" cy="2.57732" r="2.57732" transform="translate(192.302 76.1729) scale(2) rotate(20)" fill="black"/>
<circle cx="2.57732" cy="2.57732" r="2.57732" transform="translate(180.733 80.4951) scale(2) rotate(20)" fill="black"/>
<path d="M48.9118 13.6633C48.9118 27.1699 37.9626 38.1192 24.4559 38.1192C10.9493 38.1192 0 27.1699 0 13.6633C0 0.156688 10.7614 0 24.268 0C37.7746 0 48.9118 0.156688 48.9118 13.6633Z" transform="translate(0 124.92) scale(2) rotate(-10)" fill="#453E40"/>
<path d="M48.9118 13.6633C48.9118 27.1699 37.9626 38.1192 24.4559 38.1192C10.9493 38.1192 0 27.1699 0 13.6633C0 0.156688 10.7614 0 24.268 0C37.7746 0 48.9118 0.156688 48.9118 13.6633Z" transform="translate(0 124.92) scale(2) rotate(-10)" fill="url(#paint0_radial)"/>
<circle cx="17.6976" cy="17.6976" r="17.6976" transform="translate(145.909 79.2783) scale(2) rotate(20)" fill="#453E40"/>
<circle cx="17.6976" cy="17.6976" r="17.6976" transform="translate(145.909 79.2783) scale(2) rotate(20)" fill="url(#paint1_radial)"/>
<circle cx="2.57732" cy="2.57732" r="2.57732" transform="translate(157.792 84.5791) scale(2) rotate(20)" fill="black"/>
<circle cx="2.57732" cy="2.57732" r="2.57732" transform="translate(144.189 86.4541) scale(2) rotate(20)" fill="black"/>
<path d="M6.07606 58.8674C8.64514 56.848 10.1893 55.8597 13.1207 54.3428L71.941 21.124C74.743 19.2604 76.2464 18.1172 78.8138 15.9121C80.1202 14.7785 80.5135 13.9117 80.7039 12.0174C80.6579 8.89262 80.1002 7.52657 78.2411 5.71731C75.9835 3.83265 74.5902 3.59038 71.8837 4.57184C69.4305 5.91708 68.5842 6.58015 69.3064 7.37825C70.8293 8.41764 71.4677 9.09726 71.4828 10.8147C71.0479 12.8109 70.5162 13.7864 68.39 14.9384L67.13 22.8422L65.8127 14.8811C63.8727 13.3484 63.2372 12.404 63.1208 10.5283C63.2972 7.70366 63.8753 6.18162 65.9272 3.59818C68.252 1.19377 69.9381 0.444844 73.5446 0.0472022C76.4746 -0.168542 78.0443 0.31495 80.7039 2.33815C83.4701 4.51969 84.5203 5.91831 84.7703 8.98192C84.9016 12.4685 84.6696 14.3848 83.7966 17.7448C81.8882 22.7868 80.0902 25.1457 75.6638 28.5696L39.0085 49.7036C34.9866 51.7094 33.6187 53.2498 32.5366 56.6337C31.6502 59.4974 30.901 61.0202 29.2147 63.6212C27.3311 65.8454 26.0687 67.0133 23.43 68.9476C19.8921 71.0859 17.7534 72.0423 13.5789 73.1859C10.7831 73.6679 9.21556 73.6653 6.41971 73.1859C4.05727 72.5457 2.90334 71.8659 1.26506 69.864C-0.250163 67.7895 -0.331811 66.623 0.635049 64.5375C2.21865 62.2737 3.37386 61.0289 6.07606 58.8674Z" transform="translate(58.9873 1.13086) scale(2) rotate(20)" fill="white" stroke="#E1DBDD" stroke-width="0.5"/>
<path d="M6.07606 58.8674C8.64514 56.848 10.1893 55.8597 13.1207 54.3428L71.941 21.124C74.743 19.2604 76.2464 18.1172 78.8138 15.9121C80.1202 14.7785 80.5135 13.9117 80.7039 12.0174C80.6579 8.89262 80.1002 7.52657 78.2411 5.71731C75.9835 3.83265 74.5902 3.59038 71.8837 4.57184C69.4305 5.91708 68.5842 6.58015 69.3064 7.37825C70.8293 8.41764 71.4677 9.09726 71.4828 10.8147C71.0479 12.8109 70.5162 13.7864 68.39 14.9384L67.13 22.8422L65.8127 14.8811C63.8727 13.3484 63.2372 12.404 63.1208 10.5283C63.2972 7.70366 63.8753 6.18162 65.9272 3.59818C68.252 1.19377 69.9381 0.444844 73.5446 0.0472022C76.4746 -0.168542 78.0443 0.31495 80.7039 2.33815C83.4701 4.51969 84.5203 5.91831 84.7703 8.98192C84.9016 12.4685 84.6696 14.3848 83.7966 17.7448C81.8882 22.7868 80.0902 25.1457 75.6638 28.5696L39.0085 49.7036C34.9866 51.7094 33.6187 53.2498 32.5366 56.6337C31.6502 59.4974 30.901 61.0202 29.2147 63.6212C27.3311 65.8454 26.0687 67.0133 23.43 68.9476C19.8921 71.0859 17.7534 72.0423 13.5789 73.1859C10.7831 73.6679 9.21556 73.6653 6.41971 73.1859C4.05727 72.5457 2.90334 71.8659 1.26506 69.864C-0.250163 67.7895 -0.331811 66.623 0.635049 64.5375C2.21865 62.2737 3.37386 61.0289 6.07606 58.8674Z" transform="translate(58.9873) scale(2) rotate(20)" fill="#453E40"/>
<path d="M6.07606 58.8674C8.64514 56.848 10.1893 55.8597 13.1207 54.3428L71.941 21.124C74.743 19.2604 76.2464 18.1172 78.8138 15.9121C80.1202 14.7785 80.5135 13.9117 80.7039 12.0174C80.6579 8.89262 80.1002 7.52657 78.2411 5.71731C75.9835 3.83265 74.5902 3.59038 71.8837 4.57184C69.4305 5.91708 68.5842 6.58015 69.3064 7.37825C70.8293 8.41764 71.4677 9.09726 71.4828 10.8147C71.0479 12.8109 70.5162 13.7864 68.39 14.9384L67.13 22.8422L65.8127 14.8811C63.8727 13.3484 63.2372 12.404 63.1208 10.5283C63.2972 7.70366 63.8753 6.18162 65.9272 3.59818C68.252 1.19377 69.9381 0.444844 73.5446 0.0472022C76.4746 -0.168542 78.0443 0.31495 80.7039 2.33815C83.4701 4.51969 84.5203 5.91831 84.7703 8.98192C84.9016 12.4685 84.6696 14.3848 83.7966 17.7448C81.8882 22.7868 80.0902 25.1457 75.6638 28.5696L39.0085 49.7036C34.9866 51.7094 33.6187 53.2498 32.5366 56.6337C31.6502 59.4974 30.901 61.0202 29.2147 63.6212C27.3311 65.8454 26.0687 67.0133 23.43 68.9476C19.8921 71.0859 17.7534 72.0423 13.5789 73.1859C10.7831 73.6679 9.21556 73.6653 6.41971 73.1859C4.05727 72.5457 2.90334 71.8659 1.26506 69.864C-0.250163 67.7895 -0.331811 66.623 0.635049 64.5375C2.21865 62.2737 3.37386 61.0289 6.07606 58.8674Z" transform="translate(58.9873) scale(2) rotate(20)" fill="url(#paint2_radial)"/>
<rect width="5.72738" height="9.2669" rx="2.86369" transform="translate(27.5588 117.015) scale(2) rotate(-12)" fill="#E1DBDD"/>
<rect width="3.53952" height="5.72695" rx="1.76976" transform="translate(74.5879 109.237) scale(2) rotate(-12)" fill="#E1DBDD"/>
<rect width="3.53952" height="5.72695" rx="1.76976" transform="translate(176.647 90.0664) scale(2) rotate(-12)" fill="#E1DBDD"/>
<path d="M0 3.21985L10.709 0.456513L86.0218 1.72871L88.1205 0" transform="translate(11.7183 123.606) scale(2) rotate(-12)" stroke="white" stroke-width="0.5"/>
<path d="M0 4.47101L10.6726 2.09013L85.8579 3.35021L93.8999 0" transform="translate(11.6768 122.188) scale(2) rotate(-12)" stroke="white" stroke-width="0.5"/>
<path d="M0 1.93157L10.527 0L85.7122 1.26004L97.0633 1.80103" transform="translate(13.1436 128.036) scale(2) rotate(-12)" stroke="white" stroke-width="0.5"/>
<path d="M0 1.34267L10.4966 0L85.5666 1.12041L90.9682 2.53618" transform="translate(13.7993 130.069) scale(2) rotate(-12)" stroke="white" stroke-width="0.5"/>
<circle cx="2.57732" cy="2.57732" r="2.57732" transform="translate(201.479 85.1201) scale(2) rotate(20)" fill="black"/>
<circle cx="2.57732" cy="2.57732" r="2.57732" transform="translate(190.379 90.832) scale(2) rotate(20)" fill="black"/>
<defs>
<radialGradient id="paint0_radial" cx="0.5" cy="0.5" r="0.5" gradientUnits="userSpaceOnUse" gradientTransform="translate(48.9118) scale(48.9118 38.1192) rotate(90)">
<stop stop-color="white" stop-opacity="0.5"/>
<stop offset="1" stop-color="#542938" stop-opacity="0.5"/>
</radialGradient>
<radialGradient id="paint1_radial" cx="0.5" cy="0.5" r="0.5" gradientUnits="userSpaceOnUse" gradientTransform="translate(35.3952) scale(35.3952) rotate(90)">
<stop stop-color="white" stop-opacity="0.5"/>
<stop offset="1" stop-color="#542938" stop-opacity="0.5"/>
</radialGradient>
<radialGradient id="paint2_radial" cx="0.5" cy="0.5" r="0.5" gradientUnits="userSpaceOnUse" gradientTransform="translate(84.8044) scale(84.8044 73.5464) rotate(90)">
<stop stop-color="white" stop-opacity="0.5"/>
<stop offset="1" stop-color="#542938" stop-opacity="0.5"/>
</radialGradient>
</defs>
</svg>
