<svg width="248" height="248" viewBox="0 0 248 248" fill="none" xmlns="http://www.w3.org/2000/svg">
<path d="M0 14.8088C5.12826 14.3296 8.00533 14.1224 13.1456 14.0412C18.4417 13.8947 21.4109 13.8841 26.707 14.0412C33.0685 14.0816 36.4904 14.5168 42.5393 15.4485C48.0289 16.5536 50.7547 17.5128 55.7169 19.1267C61.2915 20.8428 63.9635 22.0732 68.6066 24.4361C74.0627 27.614 75.9101 29.3611 80.153 31.7925C85.4997 34.7639 88.4938 36.158 92.435 37.1019C95.5296 38.0573 97.0938 38.1877 99.7594 38.1254C102.409 37.5233 103.907 36.9008 106.604 35.1829C108.754 33.0702 109.724 31.9009 111.146 29.6176C112.639 26.77 113.329 24.9949 114.312 21.5255C115.058 19.3493 115.51 17.0517 116.359 11.5144C116.633 7.01733 116.535 4.49647 116.487 0" transform="translate(2.19775 138.182) scale(2 -2) rotate(-11.48)" stroke="#542938" stroke-width="0.5"/>
<path d="M0 14.8088C5.12826 14.3296 8.00533 14.1224 13.1456 14.0412C18.4417 13.8947 21.4109 13.8841 26.707 14.0412C33.0685 14.0816 36.4904 14.5168 42.5393 15.4485C48.0289 16.5536 50.7547 17.5128 55.7169 19.1267C61.2915 20.8428 63.9635 22.0732 68.6066 24.4361C74.0627 27.614 75.9101 29.3611 80.153 31.7925C85.4997 34.7639 88.4938 36.158 92.435 37.1019C95.5296 38.0573 97.0938 38.1877 99.7594 38.1254C102.409 37.5233 103.907 36.9008 106.604 35.1829C108.754 33.0702 109.724 31.9009 111.146 29.6176C112.639 26.77 113.329 24.9949 114.312 21.5255C115.058 19.3493 115.51 17.0517 116.359 11.5144C116.633 7.01733 116.535 4.49647 116.487 0" transform="translate(11.426 75.3789) scale(2 -2) rotate(-41.48)" stroke="#542938" stroke-width="0.5"/>
<path d="M0 14.8088C5.12826 14.3296 8.00533 14.1224 13.1456 14.0412C18.4417 13.8947 21.4109 13.8841 26.707 14.0412C33.0685 14.0816 36.4904 14.5168 42.5393 15.4485C48.0289 16.5536 50.7547 17.5128 55.7169 19.1267C61.2915 20.8428 63.9635 22.0732 68.6066 24.4361C74.0627 27.614 75.9101 29.3611 80.153 31.7925C85.4997 34.7639 88.4938 36.158 92.435 37.1019C95.5296 38.0573 97.0938 38.1877 99.7594 38.1254C102.409 37.5233 103.907 36.9008 106.604 35.1829C108.754 33.0702 109.724 31.9009 111.146 29.6176C112.639 26.77 113.329 24.9949 114.312 21.5255C115.058 19.3493 115.51 17.0517 116.359 11.5144C116.633 7.01733 116.535 4.49647 116.487 0" transform="translate(50.8188 25.6064) scale(2 -2) rotate(-71.48)" stroke="#542938" stroke-width="0.5"/>
<path d="M0 14.8088C5.12826 14.3296 8.00533 14.1224 13.1456 14.0412C18.4417 13.8947 21.4109 13.8841 26.707 14.0412C33.0685 14.0816 36.4904 14.5168 42.5393 15.4485C48.0289 16.5536 50.7547 17.5128 55.7169 19.1267C61.2915 20.8428 63.9635 22.0732 68.6066 24.4361C74.0627 27.614 75.9101 29.3611 80.153 31.7925C85.4997 34.7639 88.4938 36.158 92.435 37.1019C95.5296 38.0573 97.0938 38.1877 99.7594 38.1254C102.409 37.5233 103.907 36.9008 106.604 35.1829C108.754 33.0702 109.724 31.9009 111.146 29.6176C112.639 26.77 113.329 24.9949 114.312 21.5255C115.058 19.3493 115.51 17.0517 116.359 11.5144C116.633 7.01733 116.535 4.49647 116.487 0" transform="translate(109.82 2.19824) scale(-2 2) rotate(78.52)" stroke="#542938" stroke-width="0.5"/>
<path d="M0 14.8088C5.12826 14.3296 8.00533 14.1224 13.1456 14.0412C18.4417 13.8947 21.4109 13.8841 26.707 14.0412C33.0685 14.0816 36.4904 14.5168 42.5393 15.4485C48.0289 16.5536 50.7547 17.5128 55.7169 19.1267C61.2915 20.8428 63.9635 22.0732 68.6066 24.4361C74.0627 27.614 75.9101 29.3611 80.153 31.7925C85.4997 34.7639 88.4938 36.158 92.435 37.1019C95.5296 38.0573 97.0938 38.1877 99.7594 38.1254C102.409 37.5233 103.907 36.9008 106.604 35.1829C108.754 33.0702 109.724 31.9009 111.146 29.6176C112.639 26.77 113.329 24.9949 114.312 21.5255C115.058 19.3493 115.51 17.0517 116.359 11.5144C116.633 7.01733 116.535 4.49647 116.487 0" transform="translate(172.622 11.4268) scale(-2 2) rotate(48.52)" stroke="#542938" stroke-width="0.5"/>
<path d="M0 14.8088C5.12826 14.3296 8.00533 14.1224 13.1456 14.0412C18.4417 13.8947 21.4109 13.8841 26.707 14.0412C33.0685 14.0816 36.4904 14.5168 42.5393 15.4485C48.0289 16.5536 50.7547 17.5128 55.7169 19.1267C61.2915 20.8428 63.9635 22.0732 68.6066 24.4361C74.0627 27.614 75.9101 29.3611 80.153 31.7925C85.4997 34.7639 88.4938 36.158 92.435 37.1019C95.5296 38.0573 97.0938 38.1877 99.7594 38.1254C102.409 37.5233 103.907 36.9008 106.604 35.1829C108.754 33.0702 109.724 31.9009 111.146 29.6176C112.639 26.77 113.329 24.9949 114.312 21.5255C115.058 19.3493 115.51 17.0517 116.359 11.5144C116.633 7.01733 116.535 4.49647 116.487 0" transform="translate(222.395 50.8184) scale(-2 2) rotate(18.52)" stroke="#542938" stroke-width="0.5"/>
<path d="M0 14.8088C5.12826 14.3296 8.00533 14.1224 13.1456 14.0412C18.4417 13.8947 21.4109 13.8841 26.707 14.0412C33.0685 14.0816 36.4904 14.5168 42.5393 15.4485C48.0289 16.5536 50.7547 17.5128 55.7169 19.1267C61.2915 20.8428 63.9635 22.0732 68.6066 24.4361C74.0627 27.614 75.9101 29.3611 80.153 31.7925C85.4997 34.7639 88.4938 36.158 92.435 37.1019C95.5296 38.0573 97.0938 38.1877 99.7594 38.1254C102.409 37.5233 103.907 36.9008 106.604 35.1829C108.754 33.0702 109.724 31.9009 111.146 29.6176C112.639 26.77 113.329 24.9949 114.312 21.5255C115.058 19.3493 115.51 17.0517 116.359 11.5144C116.633 7.01733 116.535 4.49647 116.487 0" transform="translate(245.804 109.82) scale(-2 2) rotate(-11.48)" stroke="#542938" stroke-width="0.5"/>
<path d="M0 14.8088C5.12826 14.3296 8.00533 14.1224 13.1456 14.0412C18.4417 13.8947 21.4109 13.8841 26.707 14.0412C33.0685 14.0816 36.4904 14.5168 42.5393 15.4485C48.0289 16.5536 50.7547 17.5128 55.7169 19.1267C61.2915 20.8428 63.9635 22.0732 68.6066 24.4361C74.0627 27.614 75.9101 29.3611 80.153 31.7925C85.4997 34.7639 88.4938 36.158 92.435 37.1019C95.5296 38.0573 97.0938 38.1877 99.7594 38.1254C102.409 37.5233 103.907 36.9008 106.604 35.1829C108.754 33.0702 109.724 31.9009 111.146 29.6176C112.639 26.77 113.329 24.9949 114.312 21.5255C115.058 19.3493 115.51 17.0517 116.359 11.5144C116.633 7.01733 116.535 4.49647 116.487 0" transform="translate(236.575 172.622) scale(-2 2) rotate(-41.48)" stroke="#542938" stroke-width="0.5"/>
<path d="M0 14.8088C5.12826 14.3296 8.00533 14.1224 13.1456 14.0412C18.4417 13.8947 21.4109 13.8841 26.707 14.0412C33.0685 14.0816 36.4904 14.5168 42.5393 15.4485C48.0289 16.5536 50.7547 17.5128 55.7169 19.1267C61.2915 20.8428 63.9635 22.0732 68.6066 24.4361C74.0627 27.614 75.9101 29.3611 80.153 31.7925C85.4997 34.7639 88.4938 36.158 92.435 37.1019C95.5296 38.0573 97.0938 38.1877 99.7594 38.1254C102.409 37.5233 103.907 36.9008 106.604 35.1829C108.754 33.0702 109.724 31.9009 111.146 29.6176C112.639 26.77 113.329 24.9949 114.312 21.5255C115.058 19.3493 115.51 17.0517 116.359 11.5144C116.633 7.01733 116.535 4.49647 116.487 0" transform="translate(197.183 222.396) scale(-2 2) rotate(-71.48)" stroke="#542938" stroke-width="0.5"/>
<path d="M0 14.8088C5.12826 14.3296 8.00533 14.1224 13.1456 14.0412C18.4417 13.8947 21.4109 13.8841 26.707 14.0412C33.0685 14.0816 36.4904 14.5168 42.5393 15.4485C48.0289 16.5536 50.7547 17.5128 55.7169 19.1267C61.2915 20.8428 63.9635 22.0732 68.6066 24.4361C74.0627 27.614 75.9101 29.3611 80.153 31.7925C85.4997 34.7639 88.4938 36.158 92.435 37.1019C95.5296 38.0573 97.0938 38.1877 99.7594 38.1254C102.409 37.5233 103.907 36.9008 106.604 35.1829C108.754 33.0702 109.724 31.9009 111.146 29.6176C112.639 26.77 113.329 24.9949 114.312 21.5255C115.058 19.3493 115.51 17.0517 116.359 11.5144C116.633 7.01733 116.535 4.49647 116.487 0" transform="translate(138.182 245.804) scale(2 -2) rotate(78.52)" stroke="#542938" stroke-width="0.5"/>
<path d="M0 14.8088C5.12826 14.3296 8.00533 14.1224 13.1456 14.0412C18.4417 13.8947 21.4109 13.8841 26.707 14.0412C33.0685 14.0816 36.4904 14.5168 42.5393 15.4485C48.0289 16.5536 50.7547 17.5128 55.7169 19.1267C61.2915 20.8428 63.9635 22.0732 68.6066 24.4361C74.0627 27.614 75.9101 29.3611 80.153 31.7925C85.4997 34.7639 88.4938 36.158 92.435 37.1019C95.5296 38.0573 97.0938 38.1877 99.7594 38.1254C102.409 37.5233 103.907 36.9008 106.604 35.1829C108.754 33.0702 109.724 31.9009 111.146 29.6176C112.639 26.77 113.329 24.9949 114.312 21.5255C115.058 19.3493 115.51 17.0517 116.359 11.5144C116.633 7.01733 116.535 4.49647 116.487 0" transform="translate(75.3792 236.576) scale(2 -2) rotate(48.52)" stroke="#542938" stroke-width="0.5"/>
<path d="M0 14.8088C5.12826 14.3296 8.00533 14.1224 13.1456 14.0412C18.4417 13.8947 21.4109 13.8841 26.707 14.0412C33.0685 14.0816 36.4904 14.5168 42.5393 15.4485C48.0289 16.5536 50.7547 17.5128 55.7169 19.1267C61.2915 20.8428 63.9635 22.0732 68.6066 24.4361C74.0627 27.614 75.9101 29.3611 80.153 31.7925C85.4997 34.7639 88.4938 36.158 92.435 37.1019C95.5296 38.0573 97.0938 38.1877 99.7594 38.1254C102.409 37.5233 103.907 36.9008 106.604 35.1829C108.754 33.0702 109.724 31.9009 111.146 29.6176C112.639 26.77 113.329 24.9949 114.312 21.5255C115.058 19.3493 115.51 17.0517 116.359 11.5144C116.633 7.01733 116.535 4.49647 116.487 0" transform="translate(25.6069 197.182) scale(2 -2) rotate(18.52)" stroke="#542938" stroke-width="0.5"/>
</svg>
