<svg width="140" height="42" viewBox="0 0 140 42" fill="none" xmlns="http://www.w3.org/2000/svg">
<rect width="140" height="42" rx="4" fill="#859E6B"/>
<path d="M23.536 28.18C22.24 28.18 21.286 27.934 20.674 27.442C20.074 26.95 19.774 26.35 19.774 25.642C19.774 25.21 19.912 24.88 20.188 24.652C20.464 24.424 20.824 24.31 21.268 24.31C21.304 25.138 21.514 25.834 21.898 26.398C22.294 26.962 22.9 27.244 23.716 27.244C24.484 27.244 25.09 27.052 25.534 26.668C25.978 26.284 26.2 25.75 26.2 25.066C26.2 24.634 26.104 24.268 25.912 23.968C25.732 23.656 25.432 23.374 25.012 23.122C24.592 22.858 24.034 22.582 23.338 22.294C22.186 21.826 21.346 21.292 20.818 20.692C20.29 20.08 20.026 19.294 20.026 18.334C20.026 17.626 20.2 17.026 20.548 16.534C20.896 16.03 21.376 15.646 21.988 15.382C22.612 15.106 23.314 14.968 24.094 14.968C25.234 14.968 26.098 15.172 26.686 15.58C27.286 15.988 27.586 16.462 27.586 17.002C27.586 17.398 27.442 17.71 27.154 17.938C26.866 18.154 26.464 18.262 25.948 18.262C25.948 17.902 25.882 17.542 25.75 17.182C25.63 16.822 25.42 16.522 25.12 16.282C24.832 16.042 24.442 15.922 23.95 15.922C23.314 15.922 22.81 16.096 22.438 16.444C22.066 16.792 21.88 17.266 21.88 17.866C21.88 18.31 21.964 18.694 22.132 19.018C22.3 19.33 22.588 19.618 22.996 19.882C23.416 20.146 23.986 20.428 24.706 20.728C25.81 21.172 26.65 21.682 27.226 22.258C27.802 22.822 28.09 23.56 28.09 24.472C28.09 25.624 27.676 26.53 26.848 27.19C26.032 27.85 24.928 28.18 23.536 28.18ZM33.844 28.18C32.896 28.18 32.164 27.898 31.648 27.334C31.144 26.77 30.892 25.87 30.892 24.634V20.404C30.892 19.876 30.754 19.54 30.478 19.396C30.214 19.24 29.884 19.162 29.488 19.162H29.434V18.352H32.872V24.436C32.872 25.216 32.992 25.828 33.232 26.272C33.472 26.704 33.934 26.92 34.618 26.92C35.35 26.92 35.878 26.662 36.202 26.146C36.538 25.618 36.706 24.922 36.706 24.058V20.422C36.706 19.87 36.562 19.522 36.274 19.378C35.998 19.234 35.668 19.162 35.284 19.162H35.23V18.352H38.686V26.002C38.686 26.53 38.824 26.86 39.1 26.992C39.376 27.124 39.706 27.19 40.09 27.19H40.162V28H37.102L36.832 26.596H36.742C36.37 27.256 35.938 27.688 35.446 27.892C34.954 28.084 34.42 28.18 33.844 28.18ZM40.8919 32.32V31.51H41.0539C41.2939 31.51 41.5219 31.48 41.7379 31.42C41.9539 31.36 42.1279 31.24 42.2599 31.06C42.4039 30.892 42.4759 30.622 42.4759 30.25V20.404C42.4759 19.864 42.3379 19.522 42.0619 19.378C41.7859 19.234 41.4559 19.162 41.0719 19.162H40.8559V18.352H44.1139L44.3299 19.918H44.4019C44.6779 19.39 45.0319 18.97 45.4639 18.658C45.8959 18.334 46.4599 18.172 47.1559 18.172C48.3559 18.172 49.2679 18.574 49.8919 19.378C50.5279 20.17 50.8459 21.436 50.8459 23.176C50.8459 24.916 50.5279 26.188 49.8919 26.992C49.2679 27.796 48.3679 28.198 47.1919 28.198C46.4959 28.198 45.9259 28.054 45.4819 27.766C45.0499 27.478 44.7019 27.106 44.4379 26.65H44.3659C44.3899 26.974 44.4079 27.34 44.4199 27.748C44.4439 28.156 44.4559 28.48 44.4559 28.72V30.322C44.4559 30.67 44.5219 30.928 44.6539 31.096C44.7979 31.264 44.9779 31.372 45.1939 31.42C45.4099 31.48 45.6379 31.51 45.8779 31.51H46.0219V32.32H40.8919ZM46.7419 26.992C47.4859 26.992 48.0139 26.668 48.3259 26.02C48.6499 25.372 48.8119 24.418 48.8119 23.158C48.8119 21.91 48.6499 20.968 48.3259 20.332C48.0139 19.696 47.4859 19.378 46.7419 19.378C45.8659 19.378 45.2659 19.696 44.9419 20.332C44.6179 20.956 44.4559 21.904 44.4559 23.176C44.4559 24.424 44.6179 25.372 44.9419 26.02C45.2659 26.668 45.8659 26.992 46.7419 26.992ZM52.1068 32.32V31.51H52.2688C52.5088 31.51 52.7368 31.48 52.9528 31.42C53.1688 31.36 53.3428 31.24 53.4748 31.06C53.6188 30.892 53.6908 30.622 53.6908 30.25V20.404C53.6908 19.864 53.5528 19.522 53.2768 19.378C53.0008 19.234 52.6708 19.162 52.2868 19.162H52.0708V18.352H55.3288L55.5448 19.918H55.6168C55.8928 19.39 56.2468 18.97 56.6788 18.658C57.1108 18.334 57.6748 18.172 58.3708 18.172C59.5708 18.172 60.4828 18.574 61.1068 19.378C61.7428 20.17 62.0608 21.436 62.0608 23.176C62.0608 24.916 61.7428 26.188 61.1068 26.992C60.4828 27.796 59.5828 28.198 58.4068 28.198C57.7108 28.198 57.1408 28.054 56.6968 27.766C56.2648 27.478 55.9168 27.106 55.6528 26.65H55.5808C55.6048 26.974 55.6228 27.34 55.6348 27.748C55.6588 28.156 55.6708 28.48 55.6708 28.72V30.322C55.6708 30.67 55.7368 30.928 55.8688 31.096C56.0128 31.264 56.1928 31.372 56.4088 31.42C56.6248 31.48 56.8528 31.51 57.0928 31.51H57.2368V32.32H52.1068ZM57.9568 26.992C58.7008 26.992 59.2288 26.668 59.5408 26.02C59.8648 25.372 60.0268 24.418 60.0268 23.158C60.0268 21.91 59.8648 20.968 59.5408 20.332C59.2288 19.696 58.7008 19.378 57.9568 19.378C57.0808 19.378 56.4808 19.696 56.1568 20.332C55.8328 20.956 55.6708 21.904 55.6708 23.176C55.6708 24.424 55.8328 25.372 56.1568 26.02C56.4808 26.668 57.0808 26.992 57.9568 26.992ZM68.2716 28.18C66.9396 28.18 65.8896 27.766 65.1216 26.938C64.3536 26.11 63.9696 24.85 63.9696 23.158C63.9696 21.466 64.3356 20.212 65.0676 19.396C65.7996 18.568 66.8856 18.154 68.3256 18.154C69.6576 18.154 70.7076 18.568 71.4756 19.396C72.2436 20.212 72.6276 21.466 72.6276 23.158C72.6276 24.85 72.2556 26.11 71.5116 26.938C70.7796 27.766 69.6996 28.18 68.2716 28.18ZM68.3076 27.19C69.1476 27.19 69.7356 26.848 70.0716 26.164C70.4196 25.48 70.5936 24.478 70.5936 23.158C70.5936 21.826 70.4196 20.83 70.0716 20.17C69.7236 19.498 69.1296 19.162 68.2896 19.162C67.4496 19.162 66.8556 19.498 66.5076 20.17C66.1716 20.83 66.0036 21.826 66.0036 23.158C66.0036 24.478 66.1776 25.48 66.5256 26.164C66.8736 26.848 67.4676 27.19 68.3076 27.19ZM74.1021 28V27.19H74.1561C74.5641 27.19 74.9061 27.118 75.1821 26.974C75.4701 26.818 75.6141 26.458 75.6141 25.894V20.386C75.6141 19.858 75.4761 19.522 75.2001 19.378C74.9241 19.234 74.5881 19.162 74.1921 19.162H74.1381V18.352H77.1441L77.4861 20.026H77.5761C77.7321 19.666 77.9001 19.348 78.0801 19.072C78.2721 18.784 78.5181 18.562 78.8181 18.406C79.1301 18.238 79.5441 18.154 80.0601 18.154C80.7321 18.154 81.2301 18.274 81.5541 18.514C81.8781 18.754 82.0401 19.09 82.0401 19.522C82.0401 19.942 81.8901 20.284 81.5901 20.548C81.3021 20.8 80.8401 20.926 80.2041 20.926C80.2041 20.434 80.1321 20.074 79.9881 19.846C79.8561 19.606 79.6161 19.486 79.2681 19.486C78.9321 19.486 78.6561 19.612 78.4401 19.864C78.2241 20.116 78.0561 20.434 77.9361 20.818C77.8161 21.202 77.7261 21.598 77.6661 22.006C77.6181 22.414 77.5941 22.774 77.5941 23.086V25.984C77.5941 26.512 77.7321 26.848 78.0081 26.992C78.2961 27.124 78.6321 27.19 79.0161 27.19H79.5381V28H74.1021ZM86.6544 28.18C85.7664 28.18 85.1064 27.976 84.6744 27.568C84.2424 27.148 84.0264 26.416 84.0264 25.372V19.432H82.6764V18.658C82.9284 18.658 83.1924 18.604 83.4684 18.496C83.7444 18.388 83.9784 18.232 84.1704 18.028C84.5424 17.644 84.8184 17.014 84.9984 16.138H86.0064V18.352H88.3464V19.432H86.0064V25.372C86.0064 25.96 86.1204 26.392 86.3484 26.668C86.5884 26.944 86.9184 27.082 87.3384 27.082C87.5544 27.082 87.7584 27.07 87.9504 27.046C88.1424 27.022 88.3284 26.992 88.5084 26.956V27.856C88.3524 27.928 88.1004 28 87.7524 28.072C87.4044 28.144 87.0384 28.18 86.6544 28.18ZM94.2316 28V27.19H94.6096C94.9696 27.19 95.2816 27.124 95.5456 26.992C95.8096 26.86 95.9416 26.536 95.9416 26.02V17.146C95.9416 16.63 95.8096 16.306 95.5456 16.174C95.2816 16.03 94.9696 15.958 94.6096 15.958H94.2316V15.148H98.6416L102.152 24.994L105.626 15.148H109.928V15.958H109.55C109.178 15.958 108.86 16.03 108.596 16.174C108.344 16.318 108.218 16.666 108.218 17.218V25.93C108.218 26.482 108.344 26.83 108.596 26.974C108.86 27.118 109.178 27.19 109.55 27.19H109.928V28H104.87V27.19H104.96C105.344 27.19 105.644 27.13 105.86 27.01C106.076 26.878 106.19 26.572 106.202 26.092V16.624L102.224 28H101.18L97.1116 16.642V25.93C97.1116 26.482 97.2256 26.83 97.4536 26.974C97.6816 27.118 97.9996 27.19 98.4076 27.19H98.4796V28H94.2316ZM115.82 28.18C114.452 28.18 113.39 27.748 112.634 26.884C111.89 26.02 111.518 24.808 111.518 23.248C111.518 21.556 111.872 20.284 112.58 19.432C113.3 18.58 114.32 18.154 115.64 18.154C116.84 18.154 117.782 18.52 118.466 19.252C119.162 19.972 119.51 21.046 119.51 22.474V23.32H113.552C113.576 24.604 113.804 25.54 114.236 26.128C114.68 26.704 115.316 26.992 116.144 26.992C116.768 26.992 117.296 26.86 117.728 26.596C118.172 26.332 118.502 26.026 118.718 25.678C118.814 25.726 118.898 25.81 118.97 25.93C119.054 26.05 119.096 26.194 119.096 26.362C119.096 26.626 118.976 26.902 118.736 27.19C118.508 27.466 118.148 27.7 117.656 27.892C117.176 28.084 116.564 28.18 115.82 28.18ZM113.588 22.294H117.44C117.44 21.358 117.302 20.608 117.026 20.044C116.75 19.468 116.282 19.18 115.622 19.18C114.998 19.18 114.512 19.45 114.164 19.99C113.828 20.518 113.636 21.286 113.588 22.294Z" fill="white"/>
</svg>
